<?xml version="1.0" encoding="UTF-8" standalone="no"?>
<svg
   xmlns:dc="http://purl.org/dc/elements/1.1/"
   xmlns:cc="http://creativecommons.org/ns#"
   xmlns:rdf="http://www.w3.org/1999/02/22-rdf-syntax-ns#"
   xmlns:svg="http://www.w3.org/2000/svg"
   xmlns="http://www.w3.org/2000/svg"
   xmlns:sodipodi="http://sodipodi.sourceforge.net/DTD/sodipodi-0.dtd"
   xmlns:inkscape="http://www.inkscape.org/namespaces/inkscape"
   id="Layer_3"
   data-name="Layer 3"
   viewBox="0 0 108.10547 28.144531"
   version="1.1"
   sodipodi:docname="logo.svg"
   width="108.10547"
   height="28.144531"
   inkscape:version="0.92.4 (5da689c313, 2019-01-14)">
  <metadata
     id="metadata84">
    <rdf:RDF>
      <cc:Work
         rdf:about="">
        <dc:format>image/svg+xml</dc:format>
        <dc:type
           rdf:resource="http://purl.org/dc/dcmitype/StillImage" />
        <dc:title>logo</dc:title>
      </cc:Work>
    </rdf:RDF>
  </metadata>
  <sodipodi:namedview
     pagecolor="#ffffff"
     bordercolor="#666666"
     borderopacity="1"
     objecttolerance="10"
     gridtolerance="10"
     guidetolerance="10"
     inkscape:pageopacity="0"
     inkscape:pageshadow="2"
     inkscape:window-width="1920"
     inkscape:window-height="1016"
     id="namedview82"
     showgrid="false"
     fit-margin-top="0"
     fit-margin-left="0"
     fit-margin-right="0"
     fit-margin-bottom="0"
     inkscape:zoom="2.8851291"
     inkscape:cx="32.292718"
     inkscape:cy="48.449755"
     inkscape:window-x="0"
     inkscape:window-y="27"
     inkscape:window-maximized="1"
     inkscape:current-layer="flowRoot86" />
  <defs
     id="defs69">
    <style
       id="style67">.cls-1{fill:#fff;}</style>
  </defs>
  <title
     id="title71">logo</title>
  <g
     aria-label="isEven"
     transform="translate(-7.2539062,-61.421875)"
     style="font-style:normal;font-weight:normal;font-size:40px;line-height:1.25;font-family:sans-serif;letter-spacing:0px;word-spacing:0px;fill:#000000;fill-opacity:1;stroke:none"
     id="flowRoot86">
    <path
       d="m 12.820313,87.417969 2.324218,0.46875 -0.214843,1.289062 H 7.2539062 L 10.183594,72.574219 8.40625,72.105469 8.6210938,70.816406 H 15.75 Z M 11.179688,64.410156 q 0,-1.269531 0.878906,-2.128906 0.898437,-0.859375 2.128906,-0.859375 1.25,0 2.109375,0.878906 0.878906,0.859375 0.878906,2.109375 0,1.230469 -0.859375,2.128906 -0.859375,0.878907 -2.128906,0.878907 -1.25,0 -2.128906,-0.859375 -0.878906,-0.878907 -0.878906,-2.148438 z"
       style="font-style:italic;font-variant:normal;font-weight:bold;font-stretch:normal;font-family:'Liberation Serif';-inkscape-font-specification:'Liberation Serif Bold Italic';fill:#ffffff"
       id="path102" />
    <path
       d="m 30.867187,83.375 q 0,2.96875 -1.992187,4.589844 -1.992188,1.601562 -5.957031,1.601562 -1.503907,0 -3.242188,-0.351562 -1.71875,-0.332032 -2.558594,-0.703125 l 0.898438,-5.097657 h 1.289062 l 0.292969,2.578125 q 1.25,1.757813 3.457031,1.757813 1.601563,0 2.558594,-0.839844 0.957031,-0.859375 0.957031,-2.128906 0,-0.761719 -0.527343,-1.386719 Q 25.535156,82.75 24.441406,82.125 L 23.152344,81.382812 Q 20.984375,80.171875 20.085937,78.863281 19.1875,77.535156 19.1875,75.894531 q 0,-5.566406 7.363281,-5.566406 2.304688,0 5.117188,0.625 l -0.839844,4.707031 H 29.539062 L 29.285156,73.511719 Q 28.875,73.003906 28.074219,72.59375 q -0.800782,-0.429688 -1.796875,-0.429688 -1.484375,0 -2.1875,0.664063 -0.683594,0.664062 -0.683594,1.738281 0,0.761719 0.566406,1.425781 0.585938,0.664063 2.539063,1.757813 1.855468,1.035156 2.65625,1.796875 0.820312,0.742187 1.25,1.660156 0.449218,0.917969 0.449218,2.167969 z"
       style="font-style:italic;font-variant:normal;font-weight:bold;font-stretch:normal;font-family:'Liberation Serif';-inkscape-font-specification:'Liberation Serif Bold Italic';fill:#ffffff"
       id="path104" />
    <path
       d="m 40.203125,64.917969 -3.261719,-0.507813 0.253906,-1.425781 h 20.546875 l -1.171875,6.660156 H 54.792969 L 54.910156,65.40625 Q 52.78125,65.132812 48.640625,65.132812 h -2.695313 l -1.699218,9.609375 h 5.488281 l 1.113281,-2.890625 h 1.738281 l -1.425781,8.046875 h -1.738281 l -0.07813,-2.96875 h -5.488281 l -1.777344,10.097657 h 3.574219 q 4.941406,0 6.601562,-0.3125 l 2.011719,-4.84375 h 1.777344 l -1.640625,7.304687 H 32.585937 L 32.820312,87.75 36.277344,87.222656 Z"
       style="font-style:italic;font-variant:normal;font-weight:bold;font-stretch:normal;font-family:'Liberation Serif';-inkscape-font-specification:'Liberation Serif Bold Italic';fill:#ffffff"
       id="path106" />
    <path
       d="m 66.042969,70.796875 2.910156,12.773437 3.964844,-6.132812 q 0.625,-0.976563 0.957031,-1.933594 0.332031,-0.957031 0.332031,-1.582031 0,-0.507813 -0.175781,-0.820313 -0.15625,-0.332031 -0.429688,-0.546875 -0.273437,-0.214843 -1.152343,-0.46875 l 0.234375,-1.269531 h 4.511718 q 0.507813,0.449219 0.507813,1.230469 0,1.796875 -1.621094,4.296875 l -8.535156,13.222656 h -2.402344 l -3.984375,-17.011719 -1.191406,-0.46875 0.214844,-1.289062 z"
       style="font-style:italic;font-variant:normal;font-weight:bold;font-stretch:normal;font-family:'Liberation Serif';-inkscape-font-specification:'Liberation Serif Bold Italic';fill:#ffffff"
       id="path108" />
    <path
       d="m 94.207031,74.332031 q 0,1.757813 -1.289062,3.242188 -1.289063,1.484375 -3.730469,2.441406 -2.421875,0.957031 -5.507813,1.191406 -0.09766,0.390625 -0.09766,1.328125 0,4.609375 3.535156,4.609375 1.445313,0 2.675782,-0.546875 1.230468,-0.566406 2.304687,-1.289062 l 0.859375,1.230468 q -1.71875,1.445313 -3.730469,2.246094 -2.011718,0.78125 -3.867187,0.78125 -3.457031,0 -5.273438,-1.738281 -1.816406,-1.738281 -1.816406,-5.097656 0,-3.359375 1.425781,-6.230469 1.425782,-2.871094 3.769532,-4.511719 2.34375,-1.660156 4.863281,-1.660156 2.695312,0 4.277344,1.09375 1.601562,1.074219 1.601562,2.910156 z M 83.992187,79.253906 Q 86.375,79 87.898437,77.535156 q 1.542969,-1.484375 1.542969,-3.457031 0,-0.820313 -0.410156,-1.230469 -0.390625,-0.410156 -0.9375,-0.410156 -1.347656,0 -2.519531,1.992187 -1.152344,1.992188 -1.582032,4.824219 z"
       style="font-style:italic;font-variant:normal;font-weight:bold;font-stretch:normal;font-family:'Liberation Serif';-inkscape-font-specification:'Liberation Serif Bold Italic';fill:#ffffff"
       id="path110" />
    <path
       d="m 109.98828,75.015625 q 0,-1.894531 -1.77734,-1.894531 -1.23047,0 -2.77344,1.367187 -1.54297,1.367188 -2.28516,3.085938 l -2.07031,11.601562 h -5.195311 l 2.890625,-16.582031 -1.738282,-0.488281 0.253907,-1.289063 h 6.523441 l -0.15625,3.417969 q 3.02734,-3.90625 7.42187,-3.90625 1.9336,0 3.06641,1.035156 1.13281,1.035156 1.13281,2.910156 0,1.015625 -0.48828,3.574219 l -1.69922,9.570313 2.26563,0.46875 -0.25391,1.289062 h -7.53906 L 109.55859,78.0625 q 0.42969,-2.265625 0.42969,-3.046875 z"
       style="font-style:italic;font-variant:normal;font-weight:bold;font-stretch:normal;font-family:'Liberation Serif';-inkscape-font-specification:'Liberation Serif Bold Italic';fill:#ffffff"
       id="path112" />
  </g>
  <flowRoot
     xml:space="preserve"
     id="flowRoot94"
     style="font-style:normal;font-weight:normal;font-size:40px;line-height:1.25;font-family:sans-serif;letter-spacing:0px;word-spacing:0px;fill:#000000;fill-opacity:1;stroke:none"
     transform="translate(-7.2539062,-61.421875)"><flowRegion
       id="flowRegion96"><rect
         id="rect98"
         width="179.54137"
         height="77.639503"
         x="-34.660496"
         y="-31.480247" /></flowRegion><flowPara
       id="flowPara100"></flowPara></flowRoot></svg>
